  0
SECTION
  2
HEADER
  9
$ACADVER
  1
AC1014
  9
$HANDSEED
  5
FFFF
  9
$MEASUREMENT
 70
     1
  0
ENDSEC
  0
SECTION
  2
TABLES
  0
TABLE
  2
VPORT
  5
8
330
0
100
AcDbSymbolTable
 70
     4
  0
VPORT
  5
2E
330
8
100
AcDbSymbolTableRecord
100
AcDbViewportTableRecord
  2
*ACTIVE
 70
     0
 10
0.0
 20
0.0
 11
1.0
 21
1.0
 12
210.0
 22
148.5
 13
0.0
 23
0.0
 14
10.0
 24
10.0
 15
10.0
 25
10.0
 16
0.0
 26
0.0
 36
1.0
 17
0.0
 27
0.0
 37
0.0
 40
341.0
 41
1.24
 42
50.0
 43
0.0
 44
0.0
 50
0.0
 51
0.0
 71
     0
 72
   100
 73
     1
 74
     3
 75
     0
 76
     0
 77
     0
 78
     0
  0
ENDTAB
  0
TABLE
  2
LTYPE
  5
5
330
0
100
AcDbSymbolTable
 70
     1
  0
LTYPE
  5
14
330
5
100
AcDbSymbolTableRecord
100
AcDbLinetypeTableRecord
  2
BYBLOCK
 70
     0
  3

 72
    65
 73
     0
 40
0.0
  0
LTYPE
  5
15
330
5
100
AcDbSymbolTableRecord
100
AcDbLinetypeTableRecord
  2
BYLAYER
 70
     0
  3

 72
    65
 73
     0
 40
0.0
  0
LTYPE
  5
16
330
5
100
AcDbSymbolTableRecord
100
AcDbLinetypeTableRecord
  2
CONTINUOUS
 70
     0
  3
Solid line
 72
    65
 73
     0
 40
0.0
  0
ENDTAB
  0
TABLE
  2
LAYER
  5
2
100
AcDbSymbolTable
 70
2
  0
LAYER
  5
50
100
AcDbSymbolTableRecord
100
AcDbLayerTableRecord
  2
0
 70
0
  6
CONTINUOUS
  0
LAYER
  5
51
100
AcDbSymbolTableRecord
100
AcDbLayerTableRecord
  2
FORMAT
 70
0
  6
CONTINUOUS
  0
ENDTAB
  0
TABLE
  2
STYLE
  5
3
330
0
100
AcDbSymbolTable
 70
     1
  0
STYLE
  5
11
330
3
100
AcDbSymbolTableRecord
100
AcDbTextStyleTableRecord
  2
STANDARD
 70
     0
 40
0.0
 41
1.0
 50
0.0
 71
     0
 42
2.5
  3
txt
  4

  0
ENDTAB
  0
TABLE
  2
VIEW
  5
6
330
0
100
AcDbSymbolTable
 70
     0
  0
ENDTAB
  0
TABLE
  2
UCS
  5
7
330
0
100
AcDbSymbolTable
 70
     0
  0
ENDTAB
  0
TABLE
  2
APPID
  5
9
330
0
100
AcDbSymbolTable
 70
     2
  0
APPID
  5
12
330
9
100
AcDbSymbolTableRecord
100
AcDbRegAppTableRecord
  2
ACAD
 70
     0
  0
ENDTAB
  0
TABLE
  2
DIMSTYLE
  5
A
330
0
100
AcDbSymbolTable
 70
     1
  0
DIMSTYLE
105
27
330
A
100
AcDbSymbolTableRecord
100
AcDbDimStyleTableRecord
  2
ISO-25
 70
     0
  3

  4

  5

  6

  7

 40
1.0
 41
2.5
 42
0.625
 43
3.75
 44
1.25
 45
0.0
 46
0.0
 47
0.0
 48
0.0
140
2.5
141
2.5
142
0.0
143
0.03937007874016
144
1.0
145
0.0
146
1.0
147
0.625
 71
     0
 72
     0
 73
     0
 74
     0
 75
     0
 76
     0
 77
     1
 78
     8
170
     0
171
     3
172
     1
173
     0
174
     0
175
     0
176
     0
177
     0
178
     0
270
     2
271
     2
272
     2
273
     2
274
     3
340
11
275
     0
280
     0
281
     0
282
     0
283
     0
284
     8
285
     0
286
     0
287
     3
288
     0
  0
ENDTAB
  0
TABLE
  2
BLOCK_RECORD
  5
1
330
0
100
AcDbSymbolTable
 70
     1
  0
BLOCK_RECORD
  5
1F
330
1
100
AcDbSymbolTableRecord
100
AcDbBlockTableRecord
  2
*MODEL_SPACE
  0
BLOCK_RECORD
  5
1B
330
1
100
AcDbSymbolTableRecord
100
AcDbBlockTableRecord
  2
*PAPER_SPACE
  0
ENDTAB
  0
ENDSEC
  0
SECTION
  2
BLOCKS
  0
BLOCK
  5
20
330
1F
100
AcDbEntity
  8
0
100
AcDbBlockBegin
  2
*MODEL_SPACE
 70
     0
 10
0.0
 20
0.0
 30
0.0
  3
*MODEL_SPACE
  1

  0
ENDBLK
  5
21
330
1F
100
AcDbEntity
  8
0
100
AcDbBlockEnd
  0
BLOCK
  5
1C
330
1B
100
AcDbEntity
 67
     1
  8
0
100
AcDbBlockBegin
  2
*PAPER_SPACE
  1

  0
ENDBLK
  5
1D
330
1B
100
AcDbEntity
 67
     1
  8
0
100
AcDbBlockEnd
  0
ENDSEC
  0
SECTION
  2
ENTITIES
  0
LWPOLYLINE
  5
100
100
AcDbEntity
  8
0
 62
7
100
AcDbPolyline
 90
25
 70
1
 10
76.504377
 20
11.473958
 30
0.0
 10
76.448999
 20
11.891425
 30
0.0
 10
76.290011
 20
12.273957
 30
0.0
 10
76.038234
 20
12.602898
 30
0.0
 10
75.704383
 20
12.859597
 30
0.0
 10
75.315154
 20
13.020368
 30
0.0
 10
74.904388
 20
13.073957
 30
0.0
 10
74.493623
 20
13.020368
 30
0.0
 10
74.104394
 20
12.859597
 30
0.0
 10
73.770543
 20
12.602898
 30
0.0
 10
73.518739
 20
12.273957
 30
0.0
 10
73.359777
 20
11.891425
 30
0.0
 10
73.304374
 20
11.473958
 30
0.0
 10
73.359777
 20
11.056488
 30
0.0
 10
73.518739
 20
10.673956
 30
0.0
 10
73.770543
 20
10.345015
 30
0.0
 10
74.104394
 20
10.088316
 30
0.0
 10
74.493623
 20
9.927548
 30
0.0
 10
74.904388
 20
9.873956
 30
0.0
 10
75.315154
 20
9.927548
 30
0.0
 10
75.704383
 20
10.088316
 30
0.0
 10
76.038234
 20
10.345015
 30
0.0
 10
76.290011
 20
10.673956
 30
0.0
 10
76.448999
 20
11.056488
 30
0.0
 10
76.504377
 20
11.473958
 30
0.0
  0
LWPOLYLINE
  5
101
100
AcDbEntity
  8
0
 62
7
100
AcDbPolyline
 90
25
 70
1
 10
33.504373
 20
35.298957
 30
0.0
 10
33.448995
 20
35.716424
 30
0.0
 10
33.290034
 20
36.098956
 30
0.0
 10
33.038230
 20
36.427899
 30
0.0
 10
32.704379
 20
36.684598
 30
0.0
 10
32.315150
 20
36.845367
 30
0.0
 10
31.904384
 20
36.898956
 30
0.0
 10
31.493619
 20
36.845367
 30
0.0
 10
31.104390
 20
36.684598
 30
0.0
 10
30.770539
 20
36.427899
 30
0.0
 10
30.518735
 20
36.098956
 30
0.0
 10
30.359773
 20
35.716424
 30
0.0
 10
30.304396
 20
35.298957
 30
0.0
 10
30.359773
 20
34.881489
 30
0.0
 10
30.518735
 20
34.498957
 30
0.0
 10
30.770539
 20
34.170014
 30
0.0
 10
31.104390
 20
33.913315
 30
0.0
 10
31.493619
 20
33.752547
 30
0.0
 10
31.904384
 20
33.698958
 30
0.0
 10
32.315150
 20
33.752547
 30
0.0
 10
32.704379
 20
33.913315
 30
0.0
 10
33.038230
 20
34.170014
 30
0.0
 10
33.290034
 20
34.498957
 30
0.0
 10
33.448995
 20
34.881489
 30
0.0
 10
33.504373
 20
35.298957
 30
0.0
  0
LWPOLYLINE
  5
102
100
AcDbEntity
  8
0
 62
7
100
AcDbPolyline
 90
49
 70
1
 10
16.779372
 20
67.773957
 30
0.0
 10
16.744209
 20
68.303796
 30
0.0
 10
16.640916
 20
68.817628
 30
0.0
 10
16.472905
 20
69.309626
 30
0.0
 10
16.243485
 20
69.773956
 30
0.0
 10
15.956068
 20
70.204796
 30
0.0
 10
15.613989
 20
70.596313
 30
0.0
 10
15.220659
 20
70.942676
 30
0.0
 10
14.779387
 20
71.238060
 30
0.0
 10
14.302952
 20
71.472515
 30
0.0
 10
13.806302
 20
71.639983
 30
0.0
 10
13.296212
 20
71.740464
 30
0.0
 10
12.779375
 20
71.773957
 30
0.0
 10
12.262564
 20
71.740464
 30
0.0
 10
11.752448
 20
71.639983
 30
0.0
 10
11.255825
 20
71.472515
 30
0.0
 10
10.779390
 20
71.238060
 30
0.0
 10
10.338118
 20
70.942676
 30
0.0
 10
9.944761
 20
70.596313
 30
0.0
 10
9.602708
 20
70.204796
 30
0.0
 10
9.315291
 20
69.773956
 30
0.0
 10
9.085871
 20
69.309626
 30
0.0
 10
8.917834
 20
68.817628
 30
0.0
 10
8.814567
 20
68.303796
 30
0.0
 10
8.779378
 20
67.773957
 30
0.0
 10
8.814567
 20
67.244119
 30
0.0
 10
8.917834
 20
66.730287
 30
0.0
 10
9.085871
 20
66.238289
 30
0.0
 10
9.315291
 20
65.773956
 30
0.0
 10
9.602708
 20
65.343117
 30
0.0
 10
9.944761
 20
64.951602
 30
0.0
 10
10.338118
 20
64.605239
 30
0.0
 10
10.779390
 20
64.309855
 30
0.0
 10
11.255825
 20
64.075400
 30
0.0
 10
11.752448
 20
63.907932
 30
0.0
 10
12.262564
 20
63.807451
 30
0.0
 10
12.779375
 20
63.773958
 30
0.0
 10
13.296212
 20
63.807451
 30
0.0
 10
13.806302
 20
63.907932
 30
0.0
 10
14.302952
 20
64.075400
 30
0.0
 10
14.779387
 20
64.309855
 30
0.0
 10
15.220659
 20
64.605239
 30
0.0
 10
15.613989
 20
64.951602
 30
0.0
 10
15.956068
 20
65.343117
 30
0.0
 10
16.243485
 20
65.773956
 30
0.0
 10
16.472905
 20
66.238289
 30
0.0
 10
16.640916
 20
66.730287
 30
0.0
 10
16.744209
 20
67.244119
 30
0.0
 10
16.779372
 20
67.773957
 30
0.0
  0
LWPOLYLINE
  5
103
100
AcDbEntity
  8
0
 62
7
100
AcDbPolyline
 90
49
 70
1
 10
34.779373
 20
67.773957
 30
0.0
 10
34.735426
 20
68.436255
 30
0.0
 10
34.606309
 20
69.078546
 30
0.0
 10
34.396257
 20
69.693541
 30
0.0
 10
34.109501
 20
70.273958
 30
0.0
 10
33.750224
 20
70.812507
 30
0.0
 10
33.322657
 20
71.301901
 30
0.0
 10
32.830955
 20
71.734855
 30
0.0
 10
32.279378
 20
72.104083
 30
0.0
 10
31.683828
 20
72.397154
 30
0.0
 10
31.063036
 20
72.606490
 30
0.0
 10
30.425416
 20
72.732090
 30
0.0
 10
29.779383
 20
72.773958
 30
0.0
 10
29.133350
 20
72.732090
 30
0.0
 10
28.495731
 20
72.606490
 30
0.0
 10
27.874939
 20
72.397154
 30
0.0
 10
27.279388
 20
72.104083
 30
0.0
 10
26.727811
 20
71.734855
 30
0.0
 10
26.236110
 20
71.301901
 30
0.0
 10
25.808543
 20
70.812507
 30
0.0
 10
25.449265
 20
70.273958
 30
0.0
 10
25.162510
 20
69.693541
 30
0.0
 10
24.952457
 20
69.078546
 30
0.0
 10
24.823341
 20
68.436255
 30
0.0
 10
24.779393
 20
67.773957
 30
0.0
 10
24.823341
 20
67.111658
 30
0.0
 10
24.952457
 20
66.469368
 30
0.0
 10
25.162510
 20
65.854374
 30
0.0
 10
25.449265
 20
65.273957
 30
0.0
 10
25.808543
 20
64.735408
 30
0.0
 10
26.236110
 20
64.246014
 30
0.0
 10
26.727811
 20
63.813058
 30
0.0
 10
27.279388
 20
63.443829
 30
0.0
 10
27.874939
 20
63.150761
 30
0.0
 10
28.495731
 20
62.941425
 30
0.0
 10
29.133350
 20
62.815825
 30
0.0
 10
29.779383
 20
62.773957
 30
0.0
 10
30.425416
 20
62.815825
 30
0.0
 10
31.063036
 20
62.941425
 30
0.0
 10
31.683828
 20
63.150761
 30
0.0
 10
32.279378
 20
63.443829
 30
0.0
 10
32.830955
 20
63.813058
 30
0.0
 10
33.322657
 20
64.246014
 30
0.0
 10
33.750224
 20
64.735408
 30
0.0
 10
34.109501
 20
65.273957
 30
0.0
 10
34.396257
 20
65.854374
 30
0.0
 10
34.606309
 20
66.469368
 30
0.0
 10
34.735426
 20
67.111658
 30
0.0
 10
34.779373
 20
67.773957
 30
0.0
  0
LWPOLYLINE
  5
104
100
AcDbEntity
  8
0
 62
7
100
AcDbPolyline
 90
70
 70
1
 10
53.729387
 20
32.123957
 30
0.0
 10
71.729388
 20
32.123957
 30
0.0
 10
71.729388
 20
21.473956
 30
0.0
 10
78.079388
 20
21.473956
 30
0.0
 10
78.079388
 20
32.123957
 30
0.0
 10
88.079395
 20
32.123957
 30
0.0
 10
88.079395
 20
24.139980
 30
0.0
 10
88.007560
 20
22.828949
 30
0.0
 10
87.793751
 20
21.537414
 30
0.0
 10
87.440558
 20
20.276852
 30
0.0
 10
86.950497
 20
19.058737
 30
0.0
 10
78.079388
 20
0.079375
 30
0.0
 10
71.729388
 20
0.079375
 30
0.0
 10
8.646001
 20
18.915981
 30
0.0
 10
7.712101
 20
19.236963
 30
0.0
 10
6.818445
 20
19.628247
 30
0.0
 10
5.967836
 20
20.086135
 30
0.0
 10
5.162973
 20
20.606919
 30
0.0
 10
4.406662
 20
21.186897
 30
0.0
 10
3.701627
 20
21.822368
 30
0.0
 10
3.050646
 20
22.509623
 30
0.0
 10
2.456471
 20
23.244963
 30
0.0
 10
1.921880
 20
24.024685
 30
0.0
 10
1.449599
 20
24.845084
 30
0.0
 10
1.042432
 20
25.702458
 30
0.0
 10
0.703077
 20
26.593102
 30
0.0
 10
0.434366
 20
27.513312
 30
0.0
 10
0.238998
 20
28.459388
 30
0.0
 10
0.119750
 20
29.427625
 30
0.0
 10
0.079375
 20
30.414320
 30
0.0
 10
0.079375
 20
32.123957
 30
0.0
 10
10.079381
 20
32.123957
 30
0.0
 10
10.079381
 20
38.473957
 30
0.0
 10
0.079375
 20
38.473957
 30
0.0
 10
0.079375
 20
67.473957
 30
0.0
 10
0.141340
 20
68.700888
 30
0.0
 10
0.323189
 20
69.892376
 30
0.0
 10
0.618887
 20
71.042390
 30
0.0
 10
1.022403
 20
72.144898
 30
0.0
 10
1.527731
 20
73.193870
 30
0.0
 10
2.128785
 20
74.183272
 30
0.0
 10
2.819612
 20
75.107070
 30
0.0
 10
3.594100
 20
75.959237
 30
0.0
 10
4.446270
 20
76.733741
 30
0.0
 10
5.370063
 20
77.424545
 30
0.0
 10
6.359472
 20
78.025622
 30
0.0
 10
7.408439
 20
78.530937
 30
0.0
 10
8.510958
 20
78.934461
 30
0.0
 10
9.660969
 20
79.230159
 30
0.0
 10
10.852441
 20
79.412002
 30
0.0
 10
12.079393
 20
79.473957
 30
0.0
 10
32.223631
 20
79.473957
 30
0.0
 10
33.202933
 20
79.434193
 30
0.0
 10
34.164217
 20
79.316683
 30
0.0
 10
35.103779
 20
79.124119
 30
0.0
 10
36.018047
 20
78.859182
 30
0.0
 10
36.903343
 20
78.524555
 30
0.0
 10
37.756068
 20
78.122926
 30
0.0
 10
38.572519
 20
77.656970
 30
0.0
 10
39.349124
 20
77.129383
 30
0.0
 10
40.082232
 20
76.542839
 30
0.0
 10
40.768191
 20
75.900029
 30
0.0
 10
41.403376
 20
75.203632
 30
0.0
 10
41.984136
 20
74.456338
 30
0.0
 10
42.506847
 20
73.660826
 30
0.0
 10
42.967857
 20
72.819779
 30
0.0
 10
43.363541
 20
71.935888
 30
0.0
 10
43.690249
 20
71.011830
 30
0.0
 10
53.729387
 20
38.473957
 30
0.0
 10
53.729387
 20
32.123957
 30
0.0
  0
ENDSEC
  0
SECTION
  2
OBJECTS
  0
DICTIONARY
  5
C
330
0
100
AcDbDictionary
  3
ACAD_GROUP
350
D
  3
ACAD_MLINESTYLE
350
17
  0
DICTIONARY
  5
D
330
C
100
AcDbDictionary
  0
DICTIONARY
  5
1A
330
C
100
AcDbDictionary
  0
DICTIONARY
  5
17
330
C
100
AcDbDictionary
  3
STANDARD
350
18
  0
DICTIONARY
  5
19
330
C
100
AcDbDictionary
  0
ENDSEC
  0
EOF
